<svg width="256" height="256" xmlns="http://www.w3.org/2000/svg">
 <g id="Layer_1">
  <title>Layer 1</title>
  <g>
   <rect rx="14" stroke-width="4" stroke="#212532" fill="#363d52" y="66" x="66" height="124" width="124"/>
   <g transform="translate(12.322, 12.322) scale(0.101)" fill="#fff">
    <path d="m738.66333,1306.66333l0,33q407,354 814,0l0,-33l-814,0z"/>
    <path d="m738.66333,1306.66333l152,14q12,1 15,14l4,67l132,10l8,-61q2,-11 15,-15l162,0q13,4 15,15l8,61l132,-10l4,-67q3,-13 15,-14l152,-14l0,-246q30,-39 56,-81q-35,-59 -83,-108q-43,20 -82,47q-40,-37 -88,-64q7,-51 8,-102q-59,-28 -123,-42q-26,43 -46,89q-49,-7 -98,0q-20,-46 -46,-89q-64,14 -123,42q1,51 8,102q-48,27 -88,64q-39,-27 -82,-47q-48,49 -83,108q26,42 56,81l0,246zm0,33l0,39c0,276 813,276 814,0l0,-39l-134,12l-5,69q-2,10 -14,13l-162,11q-12,0 -16,-11l-10,-65l-132,0l-10,65q-4,11 -16,11l-162,-11q-12,-3 -14,-13l-5,-69l-134,-12z" fill="#478cbf"/>
    <path d="m1116.66333,1233.66333c0,34 58,34 58,0l0,-86c0,-34 -58,-34 -58,0l0,86z"/>
    <circle r="90" cy="1159.66333" cx="1358.66333"/>
    <circle r="90" cy="1159.66333" cx="932.66333"/>
   </g>
   <g transform="translate(12.322, 12.322) scale(0.101)" fill="#414042">
    <circle r="60" cy="1165.66333" cx="940.66333"/>
    <circle r="60" cy="1165.66333" cx="1350.66333"/>
   </g>
  </g>
  <line id="svg_3" y2="242.39999" x2="122" y1="192.39999" x1="122" stroke-width="4" stroke="#212532" fill="none"/>
  <line id="svg_4" y2="244.39999" x2="123" y1="207.39999" x1="56" stroke-width="4" stroke="#212532" fill="none"/>
  <line id="svg_5" y2="244.39999" x2="125" y1="208.39999" x1="188" stroke-width="4" stroke="#212532" fill="none"/>
  <line id="svg_6" y2="169.39999" x2="270" y1="172.39999" x1="271" stroke-width="4" stroke="#212532" fill="none"/>
 </g>

</svg>